<svg xmlns="http://www.w3.org/2000/svg" width="1400" height="296" viewBox="0 0 1400 296" role="img" aria-label="Token Footprint Semantic Flamegraph">
<style>text{font-family:ui-monospace,SFMono-Regular,Menlo,Consolas,monospace;font-size:12px;fill:#1d2329}.title{font-size:18px;font-weight:700}.sub{font-size:12px;fill:#59636e}.frame{stroke:#fff;stroke-width:1}.label{pointer-events:none}</style>
<rect x="0" y="0" width="1400" height="296" fill="#f7f8f4"/>
<text class="title" x="16" y="26">Token Footprint Semantic Flamegraph</text>
<text class="sub" x="16" y="44">Collapsed by one-word session, prompt, and LLM-call tags; width = tokens.</text>
<rect class="frame" x="16.00" y="56.00" width="1368.00" height="23" fill="hsl(16 54% 69%)"><title>project:agentsight | 307461797 tokens | 100.0%</title></rect>
<clipPath id="clip0"><rect x="19.00" y="56.00" width="1362.00" height="23"/></clipPath>
<text class="label" clip-path="url(#clip0)" x="21.00" y="72.00">project:agentsight</text>
<rect class="frame" x="16.00" y="80.00" width="1237.59" height="23" fill="hsl(173 48% 75%)"><title>agent:claude | 278151068 tokens | 90.5%</title></rect>
<clipPath id="clip1"><rect x="19.00" y="80.00" width="1231.59" height="23"/></clipPath>
<text class="label" clip-path="url(#clip1)" x="21.00" y="96.00">agent:claude</text>
<rect class="frame" x="16.00" y="104.00" width="641.64" height="23" fill="hsl(66 72% 64%)"><title>session:paper | 144210095 tokens | 46.9%</title></rect>
<clipPath id="clip2"><rect x="19.00" y="104.00" width="635.64" height="23"/></clipPath>
<text class="label" clip-path="url(#clip2)" x="21.00" y="120.00">session:paper</text>
<rect class="frame" x="16.00" y="128.00" width="152.59" height="23" fill="hsl(163 49% 61%)"><title>prompt:db | 34295666 tokens | 11.2%</title></rect>
<clipPath id="clip3"><rect x="19.00" y="128.00" width="146.59" height="23"/></clipPath>
<text class="label" clip-path="url(#clip3)" x="21.00" y="144.00">prompt:db</text>
<rect class="frame" x="16.00" y="152.00" width="152.59" height="23" fill="hsl(153 61% 72%)"><title>llm:paper | 34295666 tokens | 11.2%</title></rect>
<clipPath id="clip4"><rect x="19.00" y="152.00" width="146.59" height="23"/></clipPath>
<text class="label" clip-path="url(#clip4)" x="21.00" y="168.00">llm:paper</text>
<rect class="frame" x="16.00" y="176.00" width="152.59" height="23" fill="hsl(241 51% 68%)"><title>model:claude-opus-4-6 | 34295666 tokens | 11.2%</title></rect>
<clipPath id="clip5"><rect x="19.00" y="176.00" width="146.59" height="23"/></clipPath>
<text class="label" clip-path="url(#clip5)" x="21.00" y="192.00">model:claude-opus-4-6</text>
<rect class="frame" x="16.00" y="200.00" width="152.34" height="23" fill="hsl(3 59% 65%)"><title>kind:cache | 34237781 tokens | 11.1%</title></rect>
<clipPath id="clip6"><rect x="19.00" y="200.00" width="146.34" height="23"/></clipPath>
<text class="label" clip-path="url(#clip6)" x="21.00" y="216.00">kind:cache</text>
<rect class="frame" x="168.59" y="128.00" width="118.44" height="23" fill="hsl(199 58% 72%)"><title>prompt:commit | 26619111 tokens | 8.7%</title></rect>
<clipPath id="clip7"><rect x="171.59" y="128.00" width="112.44" height="23"/></clipPath>
<text class="label" clip-path="url(#clip7)" x="173.59" y="144.00">prompt:commit</text>
<rect class="frame" x="168.59" y="152.00" width="118.44" height="23" fill="hsl(153 61% 72%)"><title>llm:paper | 26619111 tokens | 8.7%</title></rect>
<clipPath id="clip8"><rect x="171.59" y="152.00" width="112.44" height="23"/></clipPath>
<text class="label" clip-path="url(#clip8)" x="173.59" y="168.00">llm:paper</text>
<rect class="frame" x="168.59" y="176.00" width="118.44" height="23" fill="hsl(241 51% 68%)"><title>model:claude-opus-4-6 | 26619111 tokens | 8.7%</title></rect>
<clipPath id="clip9"><rect x="171.59" y="176.00" width="112.44" height="23"/></clipPath>
<text class="label" clip-path="url(#clip9)" x="173.59" y="192.00">model:claude-opus-4-6</text>
<rect class="frame" x="168.59" y="200.00" width="118.33" height="23" fill="hsl(3 59% 65%)"><title>kind:cache | 26594117 tokens | 8.6%</title></rect>
<clipPath id="clip10"><rect x="171.59" y="200.00" width="112.33" height="23"/></clipPath>
<text class="label" clip-path="url(#clip10)" x="173.59" y="216.00">kind:cache</text>
<rect class="frame" x="287.03" y="128.00" width="113.35" height="23" fill="hsl(248 54% 74%)"><title>prompt:aggregate | 25474938 tokens | 8.3%</title></rect>
<clipPath id="clip11"><rect x="290.03" y="128.00" width="107.35" height="23"/></clipPath>
<text class="label" clip-path="url(#clip11)" x="292.03" y="144.00">prompt:aggregate</text>
<rect class="frame" x="287.03" y="152.00" width="113.35" height="23" fill="hsl(153 61% 72%)"><title>llm:paper | 25474938 tokens | 8.3%</title></rect>
<clipPath id="clip12"><rect x="290.03" y="152.00" width="107.35" height="23"/></clipPath>
<text class="label" clip-path="url(#clip12)" x="292.03" y="168.00">llm:paper</text>
<rect class="frame" x="287.03" y="176.00" width="113.35" height="23" fill="hsl(241 51% 68%)"><title>model:claude-opus-4-6 | 25474938 tokens | 8.3%</title></rect>
<clipPath id="clip13"><rect x="290.03" y="176.00" width="107.35" height="23"/></clipPath>
<text class="label" clip-path="url(#clip13)" x="292.03" y="192.00">model:claude-opus-4-6</text>
<rect class="frame" x="287.03" y="200.00" width="113.05" height="23" fill="hsl(3 59% 65%)"><title>kind:cache | 25408994 tokens | 8.3%</title></rect>
<clipPath id="clip14"><rect x="290.03" y="200.00" width="107.05" height="23"/></clipPath>
<text class="label" clip-path="url(#clip14)" x="292.03" y="216.00">kind:cache</text>
<rect class="frame" x="400.38" y="128.00" width="96.01" height="23" fill="hsl(193 53% 71%)"><title>prompt:metrics | 21577916 tokens | 7.0%</title></rect>
<clipPath id="clip15"><rect x="403.38" y="128.00" width="90.01" height="23"/></clipPath>
<text class="label" clip-path="url(#clip15)" x="405.38" y="144.00">prompt:metrics</text>
<rect class="frame" x="400.38" y="152.00" width="96.01" height="23" fill="hsl(153 61% 72%)"><title>llm:paper | 21577916 tokens | 7.0%</title></rect>
<clipPath id="clip16"><rect x="403.38" y="152.00" width="90.01" height="23"/></clipPath>
<text class="label" clip-path="url(#clip16)" x="405.38" y="168.00">llm:paper</text>
<rect class="frame" x="400.38" y="176.00" width="96.01" height="23" fill="hsl(241 51% 68%)"><title>model:claude-opus-4-6 | 21577916 tokens | 7.0%</title></rect>
<clipPath id="clip17"><rect x="403.38" y="176.00" width="90.01" height="23"/></clipPath>
<text class="label" clip-path="url(#clip17)" x="405.38" y="192.00">model:claude-opus-4-6</text>
<rect class="frame" x="400.38" y="200.00" width="95.86" height="23" fill="hsl(3 59% 65%)"><title>kind:cache | 21545477 tokens | 7.0%</title></rect>
<clipPath id="clip18"><rect x="403.38" y="200.00" width="89.86" height="23"/></clipPath>
<text class="label" clip-path="url(#clip18)" x="405.38" y="216.00">kind:cache</text>
<rect class="frame" x="496.38" y="128.00" width="56.76" height="23" fill="hsl(219 64% 75%)"><title>prompt:loc | 12757116 tokens | 4.1%</title></rect>
<clipPath id="clip19"><rect x="499.38" y="128.00" width="50.76" height="23"/></clipPath>
<text class="label" clip-path="url(#clip19)" x="501.38" y="144.00">prompt:loc</text>
<rect class="frame" x="496.38" y="152.00" width="56.76" height="23" fill="hsl(153 61% 72%)"><title>llm:paper | 12757116 tokens | 4.1%</title></rect>
<clipPath id="clip20"><rect x="499.38" y="152.00" width="50.76" height="23"/></clipPath>
<text class="label" clip-path="url(#clip20)" x="501.38" y="168.00">llm:paper</text>
<rect class="frame" x="496.38" y="176.00" width="56.76" height="23" fill="hsl(241 51% 68%)"><title>model:claude-opus-4-6 | 12757116 tokens | 4.1%</title></rect>
<clipPath id="clip21"><rect x="499.38" y="176.00" width="50.76" height="23"/></clipPath>
<text class="label" clip-path="url(#clip21)" x="501.38" y="192.00">model:claude-opus-4-6</text>
<rect class="frame" x="496.38" y="200.00" width="56.35" height="23" fill="hsl(3 59% 65%)"><title>kind:cache | 12664659 tokens | 4.1%</title></rect>
<clipPath id="clip22"><rect x="499.38" y="200.00" width="50.35" height="23"/></clipPath>
<text class="label" clip-path="url(#clip22)" x="501.38" y="216.00">kind:cache</text>
<rect class="frame" x="553.14" y="128.00" width="33.36" height="23" fill="hsl(55 65% 63%)"><title>prompt:session | 7498785 tokens | 2.4%</title></rect>
<rect class="frame" x="553.14" y="152.00" width="33.36" height="23" fill="hsl(153 61% 72%)"><title>llm:paper | 7498785 tokens | 2.4%</title></rect>
<rect class="frame" x="553.14" y="176.00" width="33.36" height="23" fill="hsl(241 51% 68%)"><title>model:claude-opus-4-6 | 7498785 tokens | 2.4%</title></rect>
<rect class="frame" x="553.14" y="200.00" width="33.31" height="23" fill="hsl(3 59% 65%)"><title>kind:cache | 7485697 tokens | 2.4%</title></rect>
<rect class="frame" x="586.51" y="128.00" width="25.96" height="23" fill="hsl(84 46% 68%)"><title>prompt:visual | 5835382 tokens | 1.9%</title></rect>
<rect class="frame" x="586.51" y="152.00" width="25.96" height="23" fill="hsl(153 61% 72%)"><title>llm:paper | 5835382 tokens | 1.9%</title></rect>
<rect class="frame" x="586.51" y="176.00" width="25.96" height="23" fill="hsl(241 51% 68%)"><title>model:claude-opus-4-6 | 5835382 tokens | 1.9%</title></rect>
<rect class="frame" x="586.51" y="200.00" width="25.82" height="23" fill="hsl(3 59% 65%)"><title>kind:cache | 5802290 tokens | 1.9%</title></rect>
<rect class="frame" x="612.47" y="128.00" width="21.85" height="23" fill="hsl(222 48% 60%)"><title>prompt:work | 4910658 tokens | 1.6%</title></rect>
<rect class="frame" x="612.47" y="152.00" width="21.85" height="23" fill="hsl(153 61% 72%)"><title>llm:paper | 4910658 tokens | 1.6%</title></rect>
<rect class="frame" x="612.47" y="176.00" width="21.85" height="23" fill="hsl(241 51% 68%)"><title>model:claude-opus-4-6 | 4910658 tokens | 1.6%</title></rect>
<rect class="frame" x="612.47" y="200.00" width="21.66" height="23" fill="hsl(3 59% 65%)"><title>kind:cache | 4869226 tokens | 1.6%</title></rect>
<rect class="frame" x="634.32" y="128.00" width="16.50" height="23" fill="hsl(148 52% 65%)"><title>prompt:design | 3707501 tokens | 1.2%</title></rect>
<rect class="frame" x="634.32" y="152.00" width="16.50" height="23" fill="hsl(153 61% 72%)"><title>llm:paper | 3707501 tokens | 1.2%</title></rect>
<rect class="frame" x="634.32" y="176.00" width="16.50" height="23" fill="hsl(241 51% 68%)"><title>model:claude-opus-4-6 | 3707501 tokens | 1.2%</title></rect>
<rect class="frame" x="634.32" y="200.00" width="16.42" height="23" fill="hsl(3 59% 65%)"><title>kind:cache | 3689916 tokens | 1.2%</title></rect>
<rect class="frame" x="650.82" y="128.00" width="1.62" height="23" fill="hsl(170 64% 74%)"><title>prompt:record | 364005 tokens | 0.1%</title></rect>
<rect class="frame" x="650.82" y="152.00" width="1.62" height="23" fill="hsl(153 61% 72%)"><title>llm:paper | 364005 tokens | 0.1%</title></rect>
<rect class="frame" x="650.82" y="176.00" width="1.62" height="23" fill="hsl(241 51% 68%)"><title>model:claude-opus-4-6 | 364005 tokens | 0.1%</title></rect>
<rect class="frame" x="650.82" y="200.00" width="1.61" height="23" fill="hsl(3 59% 65%)"><title>kind:cache | 362101 tokens | 0.1%</title></rect>
<rect class="frame" x="652.44" y="128.00" width="1.57" height="23" fill="hsl(84 46% 73%)"><title>prompt:task | 353909 tokens | 0.1%</title></rect>
<rect class="frame" x="652.44" y="152.00" width="1.57" height="23" fill="hsl(153 61% 72%)"><title>llm:paper | 353909 tokens | 0.1%</title></rect>
<rect class="frame" x="652.44" y="176.00" width="1.57" height="23" fill="hsl(241 51% 68%)"><title>model:claude-opus-4-6 | 353909 tokens | 0.1%</title></rect>
<rect class="frame" x="652.44" y="200.00" width="1.57" height="23" fill="hsl(3 59% 65%)"><title>kind:cache | 352405 tokens | 0.1%</title></rect>
<rect class="frame" x="654.01" y="128.00" width="1.32" height="23" fill="hsl(24 49% 61%)"><title>prompt:agentsight | 296654 tokens | 0.1%</title></rect>
<rect class="frame" x="654.01" y="152.00" width="1.32" height="23" fill="hsl(153 61% 72%)"><title>llm:paper | 296654 tokens | 0.1%</title></rect>
<rect class="frame" x="654.01" y="176.00" width="1.32" height="23" fill="hsl(241 51% 68%)"><title>model:claude-opus-4-6 | 296654 tokens | 0.1%</title></rect>
<rect class="frame" x="654.01" y="200.00" width="1.31" height="23" fill="hsl(3 59% 65%)"><title>kind:cache | 294864 tokens | 0.1%</title></rect>
<rect class="frame" x="655.33" y="128.00" width="1.08" height="23" fill="hsl(66 52% 65%)"><title>prompt:frontend | 242088 tokens | 0.1%</title></rect>
<rect class="frame" x="655.33" y="152.00" width="1.08" height="23" fill="hsl(153 61% 72%)"><title>llm:paper | 242088 tokens | 0.1%</title></rect>
<rect class="frame" x="655.33" y="176.00" width="1.08" height="23" fill="hsl(241 51% 68%)"><title>model:claude-opus-4-6 | 242088 tokens | 0.1%</title></rect>
<rect class="frame" x="655.33" y="200.00" width="1.07" height="23" fill="hsl(3 59% 65%)"><title>kind:cache | 239677 tokens | 0.1%</title></rect>
<rect class="frame" x="656.41" y="128.00" width="0.91" height="23" fill="hsl(87 47% 73%)"><title>prompt:paper | 204610 tokens | 0.1%</title></rect>
<rect class="frame" x="656.41" y="152.00" width="0.91" height="23" fill="hsl(153 61% 72%)"><title>llm:paper | 204610 tokens | 0.1%</title></rect>
<rect class="frame" x="656.41" y="176.00" width="0.91" height="23" fill="hsl(241 51% 68%)"><title>model:claude-opus-4-6 | 204610 tokens | 0.1%</title></rect>
<rect class="frame" x="656.41" y="200.00" width="0.80" height="23" fill="hsl(3 59% 65%)"><title>kind:cache | 180076 tokens | 0.1%</title></rect>
<rect class="frame" x="657.64" y="104.00" width="592.74" height="23" fill="hsl(64 56% 63%)"><title>session:model | 133219008 tokens | 43.3%</title></rect>
<clipPath id="clip23"><rect x="660.64" y="104.00" width="586.74" height="23"/></clipPath>
<text class="label" clip-path="url(#clip23)" x="662.64" y="120.00">session:model</text>
<rect class="frame" x="657.64" y="128.00" width="260.12" height="23" fill="hsl(222 48% 60%)"><title>prompt:work | 58463271 tokens | 19.0%</title></rect>
<clipPath id="clip24"><rect x="660.64" y="128.00" width="254.12" height="23"/></clipPath>
<text class="label" clip-path="url(#clip24)" x="662.64" y="144.00">prompt:work</text>
<rect class="frame" x="657.64" y="152.00" width="257.95" height="23" fill="hsl(113 60% 71%)"><title>llm:model | 57974789 tokens | 18.9%</title></rect>
<clipPath id="clip25"><rect x="660.64" y="152.00" width="251.95" height="23"/></clipPath>
<text class="label" clip-path="url(#clip25)" x="662.64" y="168.00">llm:model</text>
<rect class="frame" x="657.64" y="176.00" width="257.95" height="23" fill="hsl(241 66% 61%)"><title>model:claude-fable-5 | 57974789 tokens | 18.9%</title></rect>
<clipPath id="clip26"><rect x="660.64" y="176.00" width="251.95" height="23"/></clipPath>
<text class="label" clip-path="url(#clip26)" x="662.64" y="192.00">model:claude-fable-5</text>
<rect class="frame" x="657.64" y="200.00" width="255.85" height="23" fill="hsl(3 59% 65%)"><title>kind:cache | 57503301 tokens | 18.7%</title></rect>
<clipPath id="clip27"><rect x="660.64" y="200.00" width="249.85" height="23"/></clipPath>
<text class="label" clip-path="url(#clip27)" x="662.64" y="216.00">kind:cache</text>
<rect class="frame" x="913.49" y="200.00" width="1.95" height="23" fill="hsl(128 46% 70%)"><title>kind:output | 438218 tokens | 0.1%</title></rect>
<rect class="frame" x="915.59" y="152.00" width="2.17" height="23" fill="hsl(121 62% 75%)"><title>llm:aggregate | 488482 tokens | 0.2%</title></rect>
<rect class="frame" x="915.59" y="176.00" width="2.17" height="23" fill="hsl(241 66% 61%)"><title>model:claude-fable-5 | 488482 tokens | 0.2%</title></rect>
<rect class="frame" x="915.59" y="200.00" width="2.17" height="23" fill="hsl(3 59% 65%)"><title>kind:cache | 486634 tokens | 0.2%</title></rect>
<rect class="frame" x="917.76" y="128.00" width="189.02" height="23" fill="hsl(55 65% 63%)"><title>prompt:session | 42481940 tokens | 13.8%</title></rect>
<clipPath id="clip28"><rect x="920.76" y="128.00" width="183.02" height="23"/></clipPath>
<text class="label" clip-path="url(#clip28)" x="922.76" y="144.00">prompt:session</text>
<rect class="frame" x="917.76" y="152.00" width="186.92" height="23" fill="hsl(113 60% 71%)"><title>llm:model | 42009849 tokens | 13.7%</title></rect>
<clipPath id="clip29"><rect x="920.76" y="152.00" width="180.92" height="23"/></clipPath>
<text class="label" clip-path="url(#clip29)" x="922.76" y="168.00">llm:model</text>
<rect class="frame" x="917.76" y="176.00" width="186.92" height="23" fill="hsl(241 66% 61%)"><title>model:claude-fable-5 | 42009849 tokens | 13.7%</title></rect>
<clipPath id="clip30"><rect x="920.76" y="176.00" width="180.92" height="23"/></clipPath>
<text class="label" clip-path="url(#clip30)" x="922.76" y="192.00">model:claude-fable-5</text>
<rect class="frame" x="917.76" y="200.00" width="186.09" height="23" fill="hsl(3 59% 65%)"><title>kind:cache | 41824201 tokens | 13.6%</title></rect>
<clipPath id="clip31"><rect x="920.76" y="200.00" width="180.09" height="23"/></clipPath>
<text class="label" clip-path="url(#clip31)" x="922.76" y="216.00">kind:cache</text>
<rect class="frame" x="1103.85" y="200.00" width="0.66" height="23" fill="hsl(128 46% 70%)"><title>kind:output | 147805 tokens | 0.0%</title></rect>
<rect class="frame" x="1104.68" y="152.00" width="2.10" height="23" fill="hsl(183 47% 66%)"><title>llm:tagging | 472091 tokens | 0.2%</title></rect>
<rect class="frame" x="1104.68" y="176.00" width="2.10" height="23" fill="hsl(241 66% 61%)"><title>model:claude-fable-5 | 472091 tokens | 0.2%</title></rect>
<rect class="frame" x="1104.68" y="200.00" width="2.10" height="23" fill="hsl(3 59% 65%)"><title>kind:cache | 471029 tokens | 0.2%</title></rect>
<rect class="frame" x="1106.78" y="128.00" width="73.84" height="23" fill="hsl(199 58% 72%)"><title>prompt:commit | 16596334 tokens | 5.4%</title></rect>
<clipPath id="clip32"><rect x="1109.78" y="128.00" width="67.84" height="23"/></clipPath>
<text class="label" clip-path="url(#clip32)" x="1111.78" y="144.00">prompt:commit</text>
<rect class="frame" x="1106.78" y="152.00" width="73.84" height="23" fill="hsl(113 60% 71%)"><title>llm:model | 16596334 tokens | 5.4%</title></rect>
<clipPath id="clip33"><rect x="1109.78" y="152.00" width="67.84" height="23"/></clipPath>
<text class="label" clip-path="url(#clip33)" x="1111.78" y="168.00">llm:model</text>
<rect class="frame" x="1106.78" y="176.00" width="73.84" height="23" fill="hsl(241 66% 61%)"><title>model:claude-fable-5 | 16596334 tokens | 5.4%</title></rect>
<clipPath id="clip34"><rect x="1109.78" y="176.00" width="67.84" height="23"/></clipPath>
<text class="label" clip-path="url(#clip34)" x="1111.78" y="192.00">model:claude-fable-5</text>
<rect class="frame" x="1106.78" y="200.00" width="73.60" height="23" fill="hsl(3 59% 65%)"><title>kind:cache | 16541117 tokens | 5.4%</title></rect>
<clipPath id="clip35"><rect x="1109.78" y="200.00" width="67.60" height="23"/></clipPath>
<text class="label" clip-path="url(#clip35)" x="1111.78" y="216.00">kind:cache</text>
<rect class="frame" x="1180.62" y="128.00" width="28.80" height="23" fill="hsl(87 47% 73%)"><title>prompt:paper | 6473248 tokens | 2.1%</title></rect>
<rect class="frame" x="1180.62" y="152.00" width="28.80" height="23" fill="hsl(113 60% 71%)"><title>llm:model | 6473248 tokens | 2.1%</title></rect>
<rect class="frame" x="1180.62" y="176.00" width="28.80" height="23" fill="hsl(241 66% 61%)"><title>model:claude-fable-5 | 6473248 tokens | 2.1%</title></rect>
<rect class="frame" x="1180.62" y="200.00" width="28.62" height="23" fill="hsl(3 59% 65%)"><title>kind:cache | 6433059 tokens | 2.1%</title></rect>
<rect class="frame" x="1209.42" y="128.00" width="10.81" height="23" fill="hsl(84 46% 73%)"><title>prompt:task | 2428516 tokens | 0.8%</title></rect>
<rect class="frame" x="1209.42" y="152.00" width="8.64" height="23" fill="hsl(113 60% 71%)"><title>llm:model | 1941899 tokens | 0.6%</title></rect>
<rect class="frame" x="1209.42" y="176.00" width="8.64" height="23" fill="hsl(241 66% 61%)"><title>model:claude-fable-5 | 1941899 tokens | 0.6%</title></rect>
<rect class="frame" x="1209.42" y="200.00" width="8.58" height="23" fill="hsl(3 59% 65%)"><title>kind:cache | 1927622 tokens | 0.6%</title></rect>
<rect class="frame" x="1218.06" y="152.00" width="2.17" height="23" fill="hsl(121 62% 75%)"><title>llm:aggregate | 486617 tokens | 0.2%</title></rect>
<rect class="frame" x="1218.06" y="176.00" width="2.17" height="23" fill="hsl(241 66% 61%)"><title>model:claude-fable-5 | 486617 tokens | 0.2%</title></rect>
<rect class="frame" x="1218.06" y="200.00" width="2.16" height="23" fill="hsl(3 59% 65%)"><title>kind:cache | 485342 tokens | 0.2%</title></rect>
<rect class="frame" x="1220.23" y="128.00" width="10.53" height="23" fill="hsl(150 65% 75%)"><title>prompt:stat | 2366658 tokens | 0.8%</title></rect>
<rect class="frame" x="1220.23" y="152.00" width="10.53" height="23" fill="hsl(113 60% 71%)"><title>llm:model | 2366658 tokens | 0.8%</title></rect>
<rect class="frame" x="1220.23" y="176.00" width="10.53" height="23" fill="hsl(241 66% 61%)"><title>model:claude-fable-5 | 2366658 tokens | 0.8%</title></rect>
<rect class="frame" x="1220.23" y="200.00" width="10.52" height="23" fill="hsl(3 59% 65%)"><title>kind:cache | 2364464 tokens | 0.8%</title></rect>
<rect class="frame" x="1230.76" y="128.00" width="8.52" height="23" fill="hsl(182 68% 65%)"><title>prompt:subagent | 1914333 tokens | 0.6%</title></rect>
<rect class="frame" x="1230.76" y="152.00" width="6.39" height="23" fill="hsl(113 60% 71%)"><title>llm:model | 1435194 tokens | 0.5%</title></rect>
<rect class="frame" x="1230.76" y="176.00" width="6.39" height="23" fill="hsl(241 66% 61%)"><title>model:claude-fable-5 | 1435194 tokens | 0.5%</title></rect>
<rect class="frame" x="1230.76" y="200.00" width="6.34" height="23" fill="hsl(3 59% 65%)"><title>kind:cache | 1424301 tokens | 0.5%</title></rect>
<rect class="frame" x="1237.14" y="152.00" width="2.13" height="23" fill="hsl(121 62% 75%)"><title>llm:aggregate | 479139 tokens | 0.2%</title></rect>
<rect class="frame" x="1237.14" y="176.00" width="2.13" height="23" fill="hsl(241 66% 61%)"><title>model:claude-fable-5 | 479139 tokens | 0.2%</title></rect>
<rect class="frame" x="1237.14" y="200.00" width="2.13" height="23" fill="hsl(3 59% 65%)"><title>kind:cache | 478709 tokens | 0.2%</title></rect>
<rect class="frame" x="1239.27" y="128.00" width="6.89" height="23" fill="hsl(203 63% 63%)"><title>prompt:pr | 1548248 tokens | 0.5%</title></rect>
<rect class="frame" x="1239.27" y="152.00" width="6.89" height="23" fill="hsl(113 60% 71%)"><title>llm:model | 1548248 tokens | 0.5%</title></rect>
<rect class="frame" x="1239.27" y="176.00" width="6.89" height="23" fill="hsl(241 66% 61%)"><title>model:claude-fable-5 | 1548248 tokens | 0.5%</title></rect>
<rect class="frame" x="1239.27" y="200.00" width="6.88" height="23" fill="hsl(3 59% 65%)"><title>kind:cache | 1547392 tokens | 0.5%</title></rect>
<rect class="frame" x="1246.16" y="128.00" width="4.21" height="23" fill="hsl(148 52% 65%)"><title>prompt:design | 946460 tokens | 0.3%</title></rect>
<rect class="frame" x="1246.16" y="152.00" width="4.21" height="23" fill="hsl(113 60% 71%)"><title>llm:model | 946460 tokens | 0.3%</title></rect>
<rect class="frame" x="1246.16" y="176.00" width="4.21" height="23" fill="hsl(241 66% 61%)"><title>model:claude-fable-5 | 946460 tokens | 0.3%</title></rect>
<rect class="frame" x="1246.16" y="200.00" width="3.87" height="23" fill="hsl(3 59% 65%)"><title>kind:cache | 869856 tokens | 0.3%</title></rect>
<rect class="frame" x="1250.37" y="104.00" width="1.48" height="23" fill="hsl(117 56% 58%)"><title>session:claude | 331702 tokens | 0.1%</title></rect>
<rect class="frame" x="1250.37" y="128.00" width="1.11" height="23" fill="hsl(108 51% 73%)"><title>prompt:use | 250083 tokens | 0.1%</title></rect>
<rect class="frame" x="1250.37" y="152.00" width="1.11" height="23" fill="hsl(122 65% 65%)"><title>llm:response | 250083 tokens | 0.1%</title></rect>
<rect class="frame" x="1250.37" y="176.00" width="1.11" height="23" fill="hsl(241 51% 68%)"><title>model:claude-opus-4-6 | 250083 tokens | 0.1%</title></rect>
<rect class="frame" x="1250.37" y="200.00" width="1.11" height="23" fill="hsl(3 59% 65%)"><title>kind:cache | 249159 tokens | 0.1%</title></rect>
<rect class="frame" x="1251.85" y="104.00" width="1.19" height="23" fill="hsl(29 64% 70%)"><title>session:implement | 266379 tokens | 0.1%</title></rect>
<rect class="frame" x="1251.85" y="128.00" width="1.19" height="23" fill="hsl(11 72% 61%)"><title>prompt:implement | 266379 tokens | 0.1%</title></rect>
<rect class="frame" x="1251.85" y="152.00" width="0.95" height="23" fill="hsl(90 58% 62%)"><title>llm:implement | 212718 tokens | 0.1%</title></rect>
<rect class="frame" x="1251.85" y="176.00" width="0.95" height="23" fill="hsl(126 55% 70%)"><title>model:claude-sonnet-4-5-20250929 | 212718 tokens | 0.1%</title></rect>
<rect class="frame" x="1251.85" y="200.00" width="0.94" height="23" fill="hsl(3 59% 65%)"><title>kind:cache | 212318 tokens | 0.1%</title></rect>
<rect class="frame" x="1253.59" y="80.00" width="130.11" height="23" fill="hsl(18 61% 64%)"><title>agent:claude-subagent | 29242338 tokens | 9.5%</title></rect>
<clipPath id="clip36"><rect x="1256.59" y="80.00" width="124.11" height="23"/></clipPath>
<text class="label" clip-path="url(#clip36)" x="1258.59" y="96.00">agent:claude-subagent</text>
<rect class="frame" x="1253.59" y="104.00" width="91.46" height="23" fill="hsl(5 71% 73%)"><title>session:subagent | 20556458 tokens | 6.7%</title></rect>
<clipPath id="clip37"><rect x="1256.59" y="104.00" width="85.46" height="23"/></clipPath>
<text class="label" clip-path="url(#clip37)" x="1258.59" y="120.00">session:subagent</text>
<rect class="frame" x="1253.59" y="128.00" width="76.08" height="23" fill="hsl(8 55% 64%)"><title>prompt:collector | 17099211 tokens | 5.6%</title></rect>
<clipPath id="clip38"><rect x="1256.59" y="128.00" width="70.08" height="23"/></clipPath>
<text class="label" clip-path="url(#clip38)" x="1258.59" y="144.00">prompt:collector</text>
<rect class="frame" x="1253.59" y="152.00" width="64.94" height="23" fill="hsl(51 70% 72%)"><title>llm:subagent | 14596192 tokens | 4.7%</title></rect>
<clipPath id="clip39"><rect x="1256.59" y="152.00" width="58.94" height="23"/></clipPath>
<text class="label" clip-path="url(#clip39)" x="1258.59" y="168.00">llm:subagent</text>
<rect class="frame" x="1253.59" y="176.00" width="49.48" height="23" fill="hsl(102 69% 61%)"><title>model:claude-opus-4-8 | 11121544 tokens | 3.6%</title></rect>
<clipPath id="clip40"><rect x="1256.59" y="176.00" width="43.48" height="23"/></clipPath>
<text class="label" clip-path="url(#clip40)" x="1258.59" y="192.00">model:claude-opus-4-8</text>
<rect class="frame" x="1253.59" y="200.00" width="49.33" height="23" fill="hsl(3 59% 65%)"><title>kind:cache | 11087222 tokens | 3.6%</title></rect>
<clipPath id="clip41"><rect x="1256.59" y="200.00" width="43.33" height="23"/></clipPath>
<text class="label" clip-path="url(#clip41)" x="1258.59" y="216.00">kind:cache</text>
<rect class="frame" x="1303.07" y="176.00" width="15.46" height="23" fill="hsl(241 66% 61%)"><title>model:claude-fable-5 | 3474648 tokens | 1.1%</title></rect>
<rect class="frame" x="1303.07" y="200.00" width="15.29" height="23" fill="hsl(3 59% 65%)"><title>kind:cache | 3435480 tokens | 1.1%</title></rect>
<rect class="frame" x="1318.53" y="152.00" width="9.22" height="23" fill="hsl(121 62% 75%)"><title>llm:aggregate | 2072239 tokens | 0.7%</title></rect>
<rect class="frame" x="1318.53" y="176.00" width="8.93" height="23" fill="hsl(102 69% 61%)"><title>model:claude-opus-4-8 | 2007160 tokens | 0.7%</title></rect>
<rect class="frame" x="1318.53" y="200.00" width="8.92" height="23" fill="hsl(3 59% 65%)"><title>kind:cache | 2005459 tokens | 0.7%</title></rect>
<rect class="frame" x="1327.75" y="152.00" width="1.63" height="23" fill="hsl(156 51% 58%)"><title>llm:session | 365815 tokens | 0.1%</title></rect>
<rect class="frame" x="1327.75" y="176.00" width="1.39" height="23" fill="hsl(102 69% 61%)"><title>model:claude-opus-4-8 | 311699 tokens | 0.1%</title></rect>
<rect class="frame" x="1327.75" y="200.00" width="1.39" height="23" fill="hsl(3 59% 65%)"><title>kind:cache | 311681 tokens | 0.1%</title></rect>
<rect class="frame" x="1329.67" y="128.00" width="15.38" height="23" fill="hsl(11 72% 61%)"><title>prompt:implement | 3457247 tokens | 1.1%</title></rect>
<rect class="frame" x="1329.67" y="152.00" width="15.38" height="23" fill="hsl(51 70% 72%)"><title>llm:subagent | 3457247 tokens | 1.1%</title></rect>
<rect class="frame" x="1329.67" y="176.00" width="15.38" height="23" fill="hsl(241 51% 68%)"><title>model:claude-opus-4-6 | 3457247 tokens | 1.1%</title></rect>
<rect class="frame" x="1329.67" y="200.00" width="15.33" height="23" fill="hsl(3 59% 65%)"><title>kind:cache | 3445474 tokens | 1.1%</title></rect>
<rect class="frame" x="1345.05" y="104.00" width="38.65" height="23" fill="hsl(64 56% 63%)"><title>session:model | 8685880 tokens | 2.8%</title></rect>
<rect class="frame" x="1345.05" y="128.00" width="35.08" height="23" fill="hsl(8 55% 64%)"><title>prompt:collector | 7883352 tokens | 2.6%</title></rect>
<rect class="frame" x="1345.05" y="152.00" width="34.22" height="23" fill="hsl(113 60% 71%)"><title>llm:model | 7691888 tokens | 2.5%</title></rect>
<rect class="frame" x="1345.05" y="176.00" width="34.22" height="23" fill="hsl(206 59% 65%)"><title>model:claude-haiku-4-5-20251001 | 7691888 tokens | 2.5%</title></rect>
<rect class="frame" x="1345.05" y="200.00" width="34.14" height="23" fill="hsl(3 59% 65%)"><title>kind:cache | 7673926 tokens | 2.5%</title></rect>
<rect class="frame" x="1379.27" y="152.00" width="0.85" height="23" fill="hsl(121 62% 75%)"><title>llm:aggregate | 191464 tokens | 0.1%</title></rect>
<rect class="frame" x="1379.27" y="176.00" width="0.85" height="23" fill="hsl(206 59% 65%)"><title>model:claude-haiku-4-5-20251001 | 191464 tokens | 0.1%</title></rect>
<rect class="frame" x="1379.27" y="200.00" width="0.83" height="23" fill="hsl(3 59% 65%)"><title>kind:cache | 186500 tokens | 0.1%</title></rect>
<rect class="frame" x="1380.12" y="128.00" width="3.57" height="23" fill="hsl(148 52% 65%)"><title>prompt:design | 802528 tokens | 0.3%</title></rect>
<rect class="frame" x="1380.12" y="152.00" width="3.26" height="23" fill="hsl(113 60% 71%)"><title>llm:model | 732261 tokens | 0.2%</title></rect>
<rect class="frame" x="1380.12" y="176.00" width="3.26" height="23" fill="hsl(206 59% 65%)"><title>model:claude-haiku-4-5-20251001 | 732261 tokens | 0.2%</title></rect>
<rect class="frame" x="1380.12" y="200.00" width="3.24" height="23" fill="hsl(3 59% 65%)"><title>kind:cache | 727305 tokens | 0.2%</title></rect>
<text class="sub" x="16" y="278">total: 307461797 tokens</text>
</svg>